<svg width="98" height="14" viewBox="0 0 98 14" fill="none" xmlns="http://www.w3.org/2000/svg">
<path d="M11.5 0.4H8.38L4.7 5.9H3V0.4H0.4V14H3V8.5H4.7L8.38 14H11.5L6.92 7.2L11.5 0.4ZM22.2452 9.4V3.7H19.6452V9.2C19.6452 11 19.0252 11.4 17.3652 11.4C15.7052 11.4 15.0852 11 15.0852 9.2V3.7H12.4852V9.4C12.4852 12.74 14.3252 14 17.3652 14C20.4052 14 22.2452 12.74 22.2452 9.4ZM33.3625 3.7H24.2625V6.3H29.3025L24.2625 12.12V14H33.3625V11.4H28.3225L33.3625 5.58V3.7ZM45.1664 3.7H35.7664V14H38.3664V6.3H42.5664V14H45.1664V3.7ZM55.9931 8.64C55.9931 5.84 54.7531 3.7 51.5131 3.7C48.1931 3.7 46.9531 6 46.9531 8.86C46.9531 10.74 47.6131 14 52.2331 14C52.9931 14 53.7531 14 55.3131 13.64V11.08C53.9331 11.4 53.0331 11.4 52.4331 11.4C50.5531 11.4 49.8931 10.84 49.6731 9.84H55.9931V8.64ZM51.4731 6.3C52.7131 6.3 53.2931 6.7 53.3731 7.84H49.5731C49.6931 6.76 50.2731 6.3 51.4731 6.3ZM64.1275 6.3V3.7H61.3875V-9.53674e-07H58.7875V3.7H57.1875V6.3H58.7875V14H64.1275V11.4H61.3875V6.3H64.1275ZM66.2352 12.92C67.6952 13.7 69.1152 14 70.6752 14C72.9152 14 74.8352 13.02 74.8352 10.78C74.8352 8.82 73.6952 8.24 70.6952 7.7C69.0952 7.4 68.8352 7.32 68.8352 6.86C68.8352 6.46 69.1752 6.3 69.8952 6.3C70.9952 6.3 72.5752 6.62 74.0352 7.14V4.54C73.0552 4.06 71.4352 3.7 70.0952 3.7C67.9552 3.7 66.2352 4.74 66.2352 6.7C66.2352 8.5 67.1352 9.38 70.2752 9.84C71.8752 10.1 72.2352 10.18 72.2352 10.7C72.2352 11.16 71.8352 11.4 70.8752 11.4C69.3952 11.4 68.0552 11.04 66.2352 10.1V12.92ZM81.2105 14C84.4505 14 86.1905 11.78 86.1905 8.84C86.1905 5.9 84.4505 3.7 81.2105 3.7C77.9705 3.7 76.2305 5.9 76.2305 8.84C76.2305 11.78 77.9705 14 81.2105 14ZM81.2105 11.4C79.4505 11.4 78.8305 10.84 78.8305 8.84C78.8305 6.84 79.4505 6.3 81.2105 6.3C82.9705 6.3 83.5905 6.84 83.5905 8.84C83.5905 10.84 82.9705 11.4 81.2105 11.4ZM94.4797 3.7L92.2197 11.16H91.8997L89.6397 3.7H86.8797L90.0597 14H94.0597L97.2397 3.7H94.4797Z" fill="white"/>
</svg>
